<svg xmlns="http://www.w3.org/2000/svg" width="96.452" height="125.387" viewBox="0 0 96.452 125.387">
  <path id="Path_95" data-name="Path 95" d="M848.678,4431.623a4.823,4.823,0,1,0,4.822,4.822A4.828,4.828,0,0,0,848.678,4431.623Zm12.056-81.984a11.937,11.937,0,0,0-7.234,2.472v-.061a12,12,0,0,0-20.064-8.946,11.971,11.971,0,0,0-20.928-3.035,12.019,12.019,0,0,0-21.7,7.158v7.234H788.4a12.071,12.071,0,0,0-12.056,12.057v24.113a30.012,30.012,0,0,0,6.554,18.682l12.736,15.921v32.913a2.411,2.411,0,0,0,4.823,0V4426.8h62.693v31.349a2.411,2.411,0,0,0,4.823,0v-33.758c0-.019-.011-.033-.011-.052a12.01,12.01,0,0,0,4.834-9.593v-53.049A12.07,12.07,0,0,0,860.734,4349.639Zm-26.524,2.411a7.234,7.234,0,0,1,14.468,0v21.7a7.234,7.234,0,0,1-14.468,0Zm-19.29-4.823a7.234,7.234,0,1,1,14.467,0v24.113a7.242,7.242,0,0,1-7.234,7.234,7.166,7.166,0,0,1-6.932-5.42,16.8,16.8,0,0,0,4.521-11.459v-4.823a2.411,2.411,0,0,0-2.411-2.411H814.92Zm-19.291,0a7.234,7.234,0,0,1,14.468,0v7.234H795.629Zm72.339,67.517a7.241,7.241,0,0,1-7.234,7.233H799.2L786.659,4406.3a25.168,25.168,0,0,1-5.5-15.668v-24.113a7.247,7.247,0,0,1,7.234-7.237H814.92v2.414a12.072,12.072,0,0,1-12.057,12.057H798.04a2.411,2.411,0,0,0-2.411,2.411v9.645a2.411,2.411,0,0,0,4.823,0v-7.234h2.411a16.737,16.737,0,0,0,8.4-2.258,11.928,11.928,0,0,0,19.678,3.228,11.941,11.941,0,0,0,19.29,2.411,11.9,11.9,0,0,0,17.741,3.792Zm0-38.581a7.234,7.234,0,0,1-14.468,0v-14.468a7.234,7.234,0,0,1,14.468,0Z" transform="translate(-776.339 -4335.171)" fill="#00af74"/>
</svg>
