<svg xmlns="http://www.w3.org/2000/svg" width="140.066" height="129.29" viewBox="0 0 140.066 129.29">
  <path id="Path_93" data-name="Path 93" d="M361.045,3981.174a16.16,16.16,0,1,0,16.159-16.161A16.177,16.177,0,0,0,361.045,3981.174Zm26.933,0A10.774,10.774,0,1,1,377.2,3970.4,10.786,10.786,0,0,1,387.978,3981.174Zm-48.484-16.161a16.161,16.161,0,1,0,16.161,16.161A16.177,16.177,0,0,0,339.494,3965.013Zm0,26.936a10.775,10.775,0,1,1,10.774-10.775A10.787,10.787,0,0,1,339.494,3991.949Zm85.839-26.6a8.08,8.08,0,0,0-14.841-1.469l-21.412,38.848H369.123a13.416,13.416,0,0,0-10.774,5.47,13.417,13.417,0,0,0-10.775-5.47H304.051l-5.421-31.446c13.3-14.989,34.882-17.038,54.332-17.038,19.373,0,46.822-2.351,61.444-22.67a2.693,2.693,0,0,0-3.656-3.83c-15.22,9.919-40.756,5.338-59.311-3.6-18.087-8.719-45.076-11.821-64.591.9a2.7,2.7,0,0,0-1.184,2.723l12.931,75.012a8.041,8.041,0,0,0-1.6,15.8,8,8,0,0,0-.592,3,8.083,8.083,0,0,0,8.078,8.078h24.245v13.471a2.693,2.693,0,1,0,5.385,0v-21.549a8.09,8.09,0,0,0-8.081-8.081H299.09a2.695,2.695,0,0,1,0-5.389h48.484a8.1,8.1,0,0,1,8.084,8.083v26.936a2.692,2.692,0,1,0,5.384,0v-26.936a8.093,8.093,0,0,1,8.081-8.083h21.549a2.688,2.688,0,0,0,2.359-1.391l22.2-40.277a2.694,2.694,0,0,1,4.953.48,2.7,2.7,0,0,1-.213,2.079l-20.917,40.57a2.656,2.656,0,0,0-.3,1.235v32.323a2.693,2.693,0,1,0,5.385,0v-31.669l20.6-39.958A8.029,8.029,0,0,0,425.333,3965.344Zm-120.856,53.538h21.549a2.7,2.7,0,0,1,2.7,2.7v2.694H304.477a2.695,2.695,0,0,1,0-5.39Zm-6.978-54.17-6.221-36.081c17.64-10.481,41.558-7.468,57.822.372,15.525,7.477,35.782,11.991,52,8.381-10.693,7.781-26.36,11.467-48.142,11.467C333.612,3948.851,312.208,3950.84,297.5,3964.712Z" transform="translate(-285.624 -3916.531)" fill="#00af74"/>
</svg>
