<svg xmlns="http://www.w3.org/2000/svg" width="132.601" height="88.401" viewBox="0 0 132.601 88.401">
  <path id="Path_96" data-name="Path 96" d="M330.81,4805.428l-64.091-24.31a2.179,2.179,0,0,0-1.567,0l-64.09,24.31a2.208,2.208,0,0,0,0,4.131l25.093,9.518v32.617c0,10.079,17.1,17.68,39.781,17.68,12.3,0,23.65-2.417,31.031-6.449-.054,1.358-.091,2.754-.091,4.239a2.208,2.208,0,0,0,2.21,2.21h8.84a2.208,2.208,0,0,0,2.21-2.21c0-13.176-2.238-21.3-3.621-25.065a6.584,6.584,0,0,0-.8-12.1v-10.925l25.094-9.518a2.209,2.209,0,0,0,0-4.131Zm-27.3,28.586a2.21,2.21,0,1,1-2.21,2.21A2.211,2.211,0,0,1,303.506,4834.014Zm-2.188,30.94a76.9,76.9,0,0,1,2.188-17.6,76.8,76.8,0,0,1,2.188,17.6ZM301.3,4830a6.583,6.583,0,0,0-.8,12.1,62.112,62.112,0,0,0-3.182,15.4c-6.226,4.548-18.366,7.459-31.38,7.459-20.838,0-35.361-6.988-35.361-13.26v-30.94l34.577,13.115a2.189,2.189,0,0,0,1.567,0l34.577-13.115Zm2.094-14.769-36.882-9.874a2.21,2.21,0,1,0-1.144,4.269l30.955,8.288-30.383,11.525-57.86-21.947,57.86-21.947,57.86,21.947Z" transform="translate(-199.635 -4780.973)" fill="#00af74"/>
</svg>
