<svg xmlns="http://www.w3.org/2000/svg" width="142.244" height="131.302" viewBox="0 0 142.244 131.302">
  <path id="Path_94" data-name="Path 94" d="M375.838,3582.583c31.968-6.46,56.329-33.206,56.351-65.461a2.733,2.733,0,0,0-2.737-2.737H413.041a2.735,2.735,0,1,0,0,5.47h13.611c-1.081,23.153-16.034,43.07-37.285,52.665,8.366-8.027,15.541-19.918,15.465-38.986a85.331,85.331,0,0,0-3.179-22.612,2.732,2.732,0,0,0-2.634-2.008H323.111a2.74,2.74,0,0,0-2.635,2.008,85.329,85.329,0,0,0-3.176,22.612c-.076,19.073,7.1,30.966,15.471,38.992-21.256-9.6-36.213-29.516-37.293-52.671h13.615a2.735,2.735,0,1,0,0-5.47H292.682a2.735,2.735,0,0,0-2.737,2.737c.023,32.254,24.376,59,56.347,65.461,2.433,1.469,4.7,2.751,6.569,3.906v12.7h-5.474a10.923,10.923,0,0,0-10.555,8.206H328.24a2.735,2.735,0,0,0-2.734,2.734v27.356a2.735,2.735,0,0,0,2.734,2.735h65.654a2.736,2.736,0,0,0,2.734-2.735v-27.356a2.736,2.736,0,0,0-2.734-2.734h-8.6a10.922,10.922,0,0,0-10.553-8.206h-5.475v-12.694C371.145,3585.335,373.4,3584.052,375.838,3582.583Zm15.319,30.277v21.886h-60.18V3612.86Zm-16.411-8.205a5.449,5.449,0,0,1,4.707,2.736H342.677a5.457,5.457,0,0,1,4.71-2.736Zm-9.712-21.956a2.737,2.737,0,0,0-1.231,2.282v14.2h-5.471v-14.2a2.735,2.735,0,0,0-1.231-2.282c-11.776-7.814-34.186-15.751-34.332-49.165a78.706,78.706,0,0,1,2.454-19.151h71.688a78.9,78.9,0,0,1,2.45,19.151C399.215,3566.948,376.8,3574.885,365.034,3582.7Zm17.918-46.43H368.217l-4.548-14.523a2.735,2.735,0,0,0-5.2,0l-4.553,14.523H339.183c-1.182,0-2.234.246-2.6,1.372a2.737,2.737,0,0,0,1,3.057l11.918,8.66-4.553,14.007a2.737,2.737,0,0,0,4.211,3.057l11.913-8.658,11.919,8.658a2.733,2.733,0,0,0,4.206-3.057l-4.55-14.009,11.92-8.658a2.743,2.743,0,0,0,.991-3.057C385.187,3536.515,384.133,3536.269,382.952,3536.269Zm-15.133,9.828a2.742,2.742,0,0,0-1,3.059l2.565,7.9-6.716-4.877a2.733,2.733,0,0,0-3.213,0l-6.716,4.877,2.566-7.9a2.75,2.75,0,0,0-.993-3.059l-6.714-4.357h8.3c1.193,0,2.234-1.282,2.6-2.408l2.559-7.891,2.565,7.891c.364,1.131,1.412,2.408,2.6,2.408h8.3Z" transform="translate(-289.945 -3508.914)" fill="#00af74"/>
</svg>
