<svg xmlns="http://www.w3.org/2000/svg" width="166.966" height="131.186" viewBox="0 0 166.966 131.186">
  <g id="Group_58" data-name="Group 58" transform="translate(-746.171 -3914.53)">
    <path id="Path_97" data-name="Path 97" d="M850.525,4033.79a8.955,8.955,0,0,1-8.945-8.944v-20.871H817.259a11.924,11.924,0,0,1-11.57-14.819l8.018-32.073a8.931,8.931,0,0,1,8.677-6.775h40.067a8.944,8.944,0,1,1,0,17.889H834.965l-4.472,17.889h20.032a8.955,8.955,0,0,1,8.945,8.945v29.815A8.955,8.955,0,0,1,850.525,4033.79Zm-28.141-77.519a2.981,2.981,0,0,0-2.894,2.259l-8.019,32.073a5.965,5.965,0,0,0,5.788,7.409h27.3a2.98,2.98,0,0,1,2.981,2.982v23.852a2.981,2.981,0,0,0,5.963,0v-29.815a2.984,2.984,0,0,0-2.981-2.982H826.673a2.981,2.981,0,0,1-2.892-3.705l5.964-23.852a2.98,2.98,0,0,1,2.891-2.258h29.815a2.981,2.981,0,1,0,0-5.963Z" fill="#00af74"/>
    <path id="Path_98" data-name="Path 98" d="M829.654,3950.308a14.908,14.908,0,1,1,14.908-14.908A14.925,14.925,0,0,1,829.654,3950.308Zm0-23.853a8.945,8.945,0,1,0,8.945,8.945A8.955,8.955,0,0,0,829.654,3926.455Z" fill="#00af74"/>
    <rect id="Rectangle_28" data-name="Rectangle 28" width="33.732" height="5.962" transform="translate(824.565 3986.959) rotate(-45)" fill="#00af74"/>
    <path id="Path_99" data-name="Path 99" d="M761.079,4045.716a2.981,2.981,0,0,1-2.108-5.089l35.778-35.778a2.981,2.981,0,0,1,4.217,0l15.781,15.781,21.744-21.744a2.981,2.981,0,0,1,4.216,4.216l-23.852,23.852a2.982,2.982,0,0,1-4.216,0l-15.782-15.781-33.67,33.67A2.972,2.972,0,0,1,761.079,4045.716Z" fill="#00af74"/>
    <path id="Path_100" data-name="Path 100" d="M749.153,4033.79a2.981,2.981,0,0,1-2.108-5.089l47.7-47.7a2.983,2.983,0,0,1,4.217,0l11.926,11.926a2.981,2.981,0,0,1-4.216,4.217l-9.819-9.819-45.6,45.6A2.972,2.972,0,0,1,749.153,4033.79Z" fill="#00af74"/>
    <path id="Path_101" data-name="Path 101" d="M852.633,3991.176l-4.216-4.217,32.8-32.8a2.98,2.98,0,0,1,4.216,0l8.374,8.374,11.949-40.624-40.623,11.948,8.374,8.376a2.981,2.981,0,0,1,0,4.216l-8.945,8.944-4.216-4.216,6.837-6.836-9.819-9.818a2.983,2.983,0,0,1,1.267-4.969l50.686-14.908a2.982,2.982,0,0,1,3.7,3.7l-14.908,50.686a2.981,2.981,0,0,1-4.967,1.267l-9.818-9.818Z" fill="#00af74"/>
    <path id="Path_102" data-name="Path 102" d="M787.913,3974.16h-32.8a8.945,8.945,0,0,1-2.97-17.383c-.008-.169-.011-.337-.011-.506a10.448,10.448,0,0,1,10.435-10.436,10.191,10.191,0,0,1,3.2.519,14.909,14.909,0,0,1,28.039,5.523,11.92,11.92,0,0,1-5.9,22.283Zm-32.8-11.926a2.982,2.982,0,0,0,0,5.963h32.8a5.958,5.958,0,0,0,1.968-11.583,2.985,2.985,0,0,1-1.991-2.965c0-.018.014-.208.014-.226a8.936,8.936,0,0,0-17.641-2.152,2.984,2.984,0,0,1-4.831,1.608,4.42,4.42,0,0,0-2.862-1.081,4.459,4.459,0,0,0-4.091,6.262,2.982,2.982,0,0,1-2.734,4.174Z" fill="#00af74"/>
    <path id="Path_103" data-name="Path 103" d="M901.211,4045.716h-32.8a8.945,8.945,0,0,1-2.97-17.382c-.009-.169-.011-.338-.011-.507a10.447,10.447,0,0,1,10.435-10.435,10.225,10.225,0,0,1,3.2.518,14.909,14.909,0,0,1,28.039,5.524,11.919,11.919,0,0,1-5.9,22.282Zm-32.8-11.926a2.981,2.981,0,0,0,0,5.963h32.8a5.957,5.957,0,0,0,1.968-11.582,2.985,2.985,0,0,1-1.991-2.966c0-.017.014-.208.014-.225a8.936,8.936,0,0,0-17.642-2.152,2.982,2.982,0,0,1-4.83,1.607,4.42,4.42,0,0,0-2.862-1.08,4.459,4.459,0,0,0-4.091,6.262,2.982,2.982,0,0,1-2.734,4.173Z" fill="#00af74"/>
  </g>
</svg>
