<svg xmlns="http://www.w3.org/2000/svg" width="127.724" height="117.805" viewBox="0 0 127.724 117.805">
  <g id="Group_69" data-name="Group 69" transform="translate(-301.57 -4340.904)">
    <g id="Group_68" data-name="Group 68">
      <g id="Group_59" data-name="Group 59">
        <path id="Path_104" data-name="Path 104" d="M404.5,4412.892a4.089,4.089,0,0,1-2.377-5.252h0a4.088,4.088,0,0,1,5.244-2.393h0a4.093,4.093,0,0,1,2.4,5.261h0A4.094,4.094,0,0,1,404.5,4412.892Z" fill="#00af74"/>
      </g>
      <g id="Group_60" data-name="Group 60">
        <path id="Path_105" data-name="Path 105" d="M425.033,4416.233a4.088,4.088,0,0,1-5.257,2.389,4.126,4.126,0,0,1-2.281-2.134,4.213,4.213,0,0,1,2.027-5.4,4.131,4.131,0,0,1,3.122-.107,4.087,4.087,0,0,1,2.389,5.256Z" fill="#00af74"/>
      </g>
      <g id="Group_61" data-name="Group 61">
        <path id="Path_106" data-name="Path 106" d="M394.425,4404.754a4.087,4.087,0,0,1-5.256,2.389,4.076,4.076,0,0,1-2.281-2.135,4.212,4.212,0,0,1,2.026-5.4,4.075,4.075,0,0,1,5.4,2.027A4.076,4.076,0,0,1,394.425,4404.754Z" fill="#00af74"/>
      </g>
      <g id="Group_62" data-name="Group 62">
        <path id="Path_107" data-name="Path 107" d="M410.495,4372.284a4.088,4.088,0,0,1-4.866-3.091h0a4.089,4.089,0,0,1,3.075-4.876h0a4.1,4.1,0,0,1,4.892,3.085h0A4.1,4.1,0,0,1,410.495,4372.284Z" fill="#00af74"/>
      </g>
      <g id="Group_63" data-name="Group 63">
        <path id="Path_108" data-name="Path 108" d="M429.2,4364.528a4.09,4.09,0,0,1-3.088,4.879,4.125,4.125,0,0,1-3.078-.535,4.212,4.212,0,0,1-1.266-5.63,4.132,4.132,0,0,1,2.553-1.8,4.09,4.09,0,0,1,4.879,3.088Z" fill="#00af74"/>
      </g>
      <g id="Group_64" data-name="Group 64">
        <path id="Path_109" data-name="Path 109" d="M397.974,4370.259a4.088,4.088,0,0,1-3.087,4.879,4.077,4.077,0,0,1-3.078-.535,4.212,4.212,0,0,1-1.266-5.63,4.073,4.073,0,0,1,5.63-1.266A4.076,4.076,0,0,1,397.974,4370.259Z" fill="#00af74"/>
      </g>
      <g id="Group_65" data-name="Group 65">
        <path id="Path_110" data-name="Path 110" d="M385.18,4439.783a4.088,4.088,0,0,0-5.7-.872h0a4.089,4.089,0,0,0-.89,5.7h0a4.094,4.094,0,0,0,5.714.893h0A4.093,4.093,0,0,0,385.18,4439.783Z" fill="#00af74"/>
      </g>
      <g id="Group_66" data-name="Group 66">
        <path id="Path_111" data-name="Path 111" d="M394.167,4457.923a4.08,4.08,0,0,0-1.788-7.327,4.212,4.212,0,0,0-4.657,3.409,4.13,4.13,0,0,0,.739,3.035,4.088,4.088,0,0,0,5.706.883Z" fill="#00af74"/>
      </g>
      <g id="Group_67" data-name="Group 67">
        <path id="Path_112" data-name="Path 112" d="M374.415,4433.074a4.088,4.088,0,0,0,.883-5.706,4.076,4.076,0,0,0-2.671-1.62,4.211,4.211,0,0,0-4.656,3.409,4.075,4.075,0,0,0,3.409,4.656A4.079,4.079,0,0,0,374.415,4433.074Z" fill="#00af74"/>
      </g>
    </g>
    <path id="Path_113" data-name="Path 113" d="M304.851,4383.4a35.207,35.207,0,1,1,63.012,17.093c-6.311,8.32-12.82,17.32-16.4,27.227-2.8,7.74-6.788,13.411-15.6,14.32a18.663,18.663,0,0,1-18.893-11.132l-3.82-14.884" fill="none" stroke="#00af74" stroke-linecap="round" stroke-linejoin="round" stroke-width="6"/>
    <path id="Path_114" data-name="Path 114" d="M340.848,4383.262c5.649,1.414,10.51,12.908,4.531,21.167-4.358,6.02-12.623,6.151-16.746,1.2-.934-1.119-3.7-4.578-2.5-8.992,2.009-7.433-.531-9.125-2.895-11.633-4.425-4.694-2.162-9.513-1.353-11.844A19.147,19.147,0,0,1,333.1,4361.86a19.713,19.713,0,0,1,2.084-.661,18.658,18.658,0,0,1,23,14.846" fill="none" stroke="#00af74" stroke-linecap="round" stroke-linejoin="round" stroke-width="6"/>
  </g>
</svg>
