<svg xmlns="http://www.w3.org/2000/svg" width="166.347" height="128.504" viewBox="0 0 166.347 128.504">
  <g id="Group_44" data-name="Group 44" transform="translate(-498.971 -1082.969)">
    <path id="Path_70" data-name="Path 70" d="M583.649,1089.255a47.007,47.007,0,0,0-47,46.076l-16.7,16.817a7.073,7.073,0,0,0-2.109,5.056,7.229,7.229,0,0,0,7.193,7.258h6.911v21.153a11.745,11.745,0,0,0,11.749,11.751h16.454v11.754a2.35,2.35,0,0,0,4.7,0l-.005-14.1a2.346,2.346,0,0,0-2.348-2.35h-18.8a7.068,7.068,0,0,1-7.051-7.053v-23.5a2.349,2.349,0,0,0-2.348-2.35h-9.261a2.51,2.51,0,0,1-2.5-2.56,2.4,2.4,0,0,1,.743-1.739l17.382-17.5a2.363,2.363,0,0,0,.682-1.774l-.005-.048a42.308,42.308,0,1,1,71.253,30.91,2.334,2.334,0,0,0-.737,1.714v40.357a2.351,2.351,0,1,0,4.7,0v-39.363a46.956,46.956,0,0,0-32.907-80.5Z" fill="#404040"/>
    <g id="Group_43" data-name="Group 43">
      <path id="Path_71" data-name="Path 71" d="M584.766,1189.708a4.659,4.659,0,1,0,4.641,4.659A4.65,4.65,0,0,0,584.766,1189.708Z" fill="none" stroke="#404040" stroke-linejoin="round" stroke-width="4"/>
      <path id="Path_72" data-name="Path 72" d="M641.095,1084.583l13.03,9.533-3.836,15.682,13.03,9.533-3.836,15.682" fill="none" stroke="#404040" stroke-linejoin="round" stroke-width="4"/>
      <path id="Path_73" data-name="Path 73" d="M629.586,1096.056l10.491,6.82-3.64,11.972,10.491,6.82-3.64,11.972" fill="none" stroke="#404040" stroke-linejoin="round" stroke-width="4"/>
      <path id="Path_74" data-name="Path 74" d="M523.205,1084.586l-13.033,9.528L514,1109.8l-13.033,9.528,3.831,15.684" fill="none" stroke="#404040" stroke-linejoin="round" stroke-width="4"/>
      <path id="Path_75" data-name="Path 75" d="M534.71,1096.063l-10.494,6.816,3.636,11.973-10.494,6.816,3.636,11.973" fill="none" stroke="#404040" stroke-linejoin="round" stroke-width="4"/>
      <path id="Path_76" data-name="Path 76" d="M583.536,1114.584h0c5.526,0,10.006,5.03,10.006,11.235l-4.715,47.339c0,3.281-2.369,5.941-5.291,5.941h0c-2.922,0-5.291-2.66-5.291-5.941l-4.715-47.339C573.53,1119.614,578.01,1114.584,583.536,1114.584Z" fill="none" stroke="#404040" stroke-linejoin="round" stroke-width="4"/>
    </g>
  </g>
</svg>
