<svg xmlns="http://www.w3.org/2000/svg" width="122.055" height="122.058" viewBox="0 0 122.055 122.058">
  <path id="Path_69" data-name="Path 69" d="M941.541,1126.192c-.009-7.594-4.7-14.078-11.4-17.31-.092-10.943-9.762-19.446-21.344-19.467a22.828,22.828,0,0,0-9.724,2.15,46.8,46.8,0,0,0-60.8,43.869l-16.679,16.792a7.131,7.131,0,0,0-2.109,5.054,7.22,7.22,0,0,0,7.188,7.241h6.9v21.126a11.727,11.727,0,0,0,11.733,11.736h16.432v11.74a2.347,2.347,0,0,0,4.694,0V1195.04a2.356,2.356,0,0,0-2.349-2.347H845.309a7.061,7.061,0,0,1-7.044-7.046v-23.469a2.336,2.336,0,0,0-.685-1.657,2.311,2.311,0,0,0-1.66-.688h-9.246a2.515,2.515,0,0,1-2.5-2.553,2.425,2.425,0,0,1,.745-1.742l17.361-17.48a2.34,2.34,0,0,0,.678-1.771v-.044a42.275,42.275,0,0,1,42.253-42.129,41.515,41.515,0,0,1,8.612.935,19.407,19.407,0,0,0-5.24,7.681,16.659,16.659,0,0,0-6.39-1.263c-8.47.016-15.612,6.255-15.649,14.4a13.119,13.119,0,0,0,.184,2.184,14.439,14.439,0,0,0-9.682,13.308c.032,7.633,6.322,13.6,14.094,14.317,0,.048-.016.092-.014.14a2.354,2.354,0,0,0,1.066,1.9l12.643,8.256-9.368,19.263a2.352,2.352,0,0,0,3.505,2.92l28.752-21.126a2.348,2.348,0,0,0-.107-3.855l-11.367-7.427h23.941a23.155,23.155,0,0,0,6.4-.908,42.215,42.215,0,0,1-12.478,22.273,2.338,2.338,0,0,0-.738,1.712v40.3a2.347,2.347,0,1,0,4.694,0v-39.3a46.839,46.839,0,0,0,13.618-27.18A19.191,19.191,0,0,0,941.541,1126.192Zm-57.7,42.556,6.12-12.587a2.341,2.341,0,0,0-.827-2.988l-11.541-7.539,18.371-13.5-6.115,12.586a2.354,2.354,0,0,0,.827,2.994l11.541,7.537Zm36.353-27.692H896.849l7.489-15.407a2.347,2.347,0,0,0-3.5-2.916l-24.945,18.326-3.2,0c-6.218-.013-10.94-4.529-10.954-9.7-.016-4.428,3.42-8.325,8.335-9.414a2.338,2.338,0,0,0,1.7-3.1,8.854,8.854,0,0,1-.537-2.982c.014-5.174,4.736-9.687,10.957-9.7a11.8,11.8,0,0,1,6.566,1.955,2.349,2.349,0,0,0,3.613-1.529c1.238-6.92,8.013-12.478,16.421-12.478,9.367.013,16.633,6.839,16.654,14.866,0,.346-.034.745-.073,1.2a2.35,2.35,0,0,0,1.483,2.393c5.978,2.348,10,7.619,9.993,13.62C936.831,1134.215,929.562,1141.04,920.192,1141.056Z" transform="translate(-819.486 -1089.415)" fill="#404040"/>
</svg>
