<svg xmlns="http://www.w3.org/2000/svg" width="151.778" height="121.422" viewBox="0 0 151.778 121.422">
  <path id="Path_79" data-name="Path 79" d="M891.4,1753.288a17.7,17.7,0,1,0-17.7-17.7A17.7,17.7,0,0,0,891.4,1753.288Zm0-30.352a12.649,12.649,0,1,1-12.643,12.65A12.669,12.669,0,0,1,891.4,1722.936ZM845.866,1814a17.706,17.706,0,1,0-17.705-17.7A17.709,17.709,0,0,0,845.866,1814Zm0-30.353a12.648,12.648,0,1,1-12.648,12.648A12.658,12.658,0,0,1,845.866,1783.648Zm113.6,32.738-6.742-2.255a2.537,2.537,0,0,0-2.218.305l-13.572,9.159-13.565-9.159a2.542,2.542,0,0,0-2.218-.305l-6.342,2.118-20.874-18.56v-19.1h25.3a2.534,2.534,0,0,0,2.53-2.525v-9.538a11.443,11.443,0,0,0-7.831-10.851l-6.742-2.25a2.506,2.506,0,0,0-2.216.3l-13.572,9.16-13.567-9.16a2.531,2.531,0,0,0-2.221-.3l-6.747,2.256a11.426,11.426,0,0,0-7.816,10.845v9.538a2.525,2.525,0,0,0,2.53,2.525h25.3v19.1l-20.882,18.563-6.338-2.116a2.5,2.5,0,0,0-2.216.3l-13.57,9.161-13.57-9.161a2.529,2.529,0,0,0-2.218-.3l-6.749,2.256a11.424,11.424,0,0,0-7.816,10.843v9.537a2.518,2.518,0,0,0,2.527,2.528h55.654a2.531,2.531,0,0,0,2.528-2.528v-9.537a11.421,11.421,0,0,0-3.622-8.312l18.8-16.712,18.8,16.708a11.431,11.431,0,0,0-3.619,8.319v9.537a2.523,2.523,0,0,0,2.527,2.528h55.655a2.537,2.537,0,0,0,2.529-2.528v-9.537A11.439,11.439,0,0,0,959.463,1816.386Zm-88.3,17.855h-50.6v-7.009a6.385,6.385,0,0,1,4.36-6.043l5.568-1.864,13.955,9.422a2.533,2.533,0,0,0,2.831,0l13.95-9.417,5.569,1.859a6.38,6.38,0,0,1,4.365,6.043Zm-5.067-60.712v-7.006a6.389,6.389,0,0,1,4.36-6.045l5.571-1.864,13.955,9.422a2.535,2.535,0,0,0,2.831,0l13.95-9.422,5.571,1.858a6.39,6.39,0,0,1,4.362,6.051v7.006Zm45.534,60.712.005-7.006a6.384,6.384,0,0,1,4.357-6.049l5.569-1.861,13.952,9.42a2.529,2.529,0,0,0,2.834,0l13.947-9.415,5.571,1.856a6.391,6.391,0,0,1,4.365,6.049v7.006Zm25.3-20.237a17.707,17.707,0,1,0-17.708-17.711A17.714,17.714,0,0,0,936.936,1814Zm0-30.36a12.65,12.65,0,1,1-12.651,12.649A12.662,12.662,0,0,1,936.936,1783.644Z" transform="translate(-815.513 -1717.878)" fill="#404040"/>
</svg>
