<svg xmlns="http://www.w3.org/2000/svg" width="152.021" height="130.302" viewBox="0 0 152.021 130.302">
  <path id="Path_83" data-name="Path 83" d="M656.82,1828.771a43.438,43.438,0,0,0-32.576-72.168c-.4,0-.8.05-1.2.061a54.24,54.24,0,1,0-93.363,47.221l-13.232,13.235a2.715,2.715,0,0,0,1.92,4.634h51.578a53.8,53.8,0,0,0,15.476-2.342,43.445,43.445,0,0,0,38.816,24.059h40.72a2.714,2.714,0,0,0,1.919-4.634Zm-73.52-14.382a48.345,48.345,0,0,1-13.348,1.936H524.927l10.471-10.474a2.712,2.712,0,0,0,0-3.839,48.832,48.832,0,1,1,82.216-44.849,43.246,43.246,0,0,0-34.314,57.226Zm40.944,23.653a38,38,0,1,1,26.876-11.133,2.716,2.716,0,0,0,0,3.84l7.29,7.293Zm-39.924-83.359-19.8,19.8-8.937-8.939a2.714,2.714,0,0,0-3.838,3.839l10.855,10.858a2.716,2.716,0,0,0,3.839,0l21.72-21.718a2.715,2.715,0,1,0-3.839-3.839Zm52.7,32.576a2.713,2.713,0,0,0-3.838,0l-8.94,8.939-8.939-8.939a2.714,2.714,0,0,0-3.838,3.839l8.939,8.939-8.939,8.939a2.714,2.714,0,1,0,3.838,3.839l8.939-8.939,8.94,8.939a2.714,2.714,0,0,0,3.838-3.839l-8.939-8.939,8.939-8.939A2.713,2.713,0,0,0,637.022,1787.259Z" transform="translate(-515.658 -1713.169)" fill="#404040"/>
</svg>
