<svg xmlns="http://www.w3.org/2000/svg" width="126.703" height="126.703" viewBox="0 0 126.703 126.703">
  <g id="Group_46" data-name="Group 46" transform="translate(-241.622 -1714.968)">
    <path id="Path_80" data-name="Path 80" d="M304.974,1715.468a62.852,62.852,0,1,0,62.851,62.852A62.923,62.923,0,0,0,304.974,1715.468Zm0,121.595a58.743,58.743,0,1,1,58.743-58.743A58.81,58.81,0,0,1,304.974,1837.063Z" fill="#404040" stroke="#404040" stroke-miterlimit="10" stroke-width="1"/>
    <path id="Path_81" data-name="Path 81" d="M304.974,1728.484a2.054,2.054,0,0,0,0-4.108,54,54,0,0,0-53.944,53.944,2.054,2.054,0,1,0,4.108,0A49.892,49.892,0,0,1,304.974,1728.484Z" fill="#404040" stroke="#404040" stroke-miterlimit="10" stroke-width="1"/>
    <path id="Path_82" data-name="Path 82" d="M335.388,1763.275H274.559a6.621,6.621,0,0,0-6.613,6.614v16.861a6.621,6.621,0,0,0,6.613,6.614h60.829A6.622,6.622,0,0,0,342,1786.75v-16.861A6.622,6.622,0,0,0,335.388,1763.275Zm2.505,23.475a2.508,2.508,0,0,1-2.505,2.506H274.559a2.508,2.508,0,0,1-2.505-2.506v-16.861a2.508,2.508,0,0,1,2.505-2.506h60.829a2.508,2.508,0,0,1,2.505,2.506Z" fill="#404040" stroke="#404040" stroke-miterlimit="10" stroke-width="1"/>
  </g>
</svg>
