<svg xmlns="http://www.w3.org/2000/svg" width="71.219" height="154.178" viewBox="0 0 71.219 154.178">
  <g id="Group_49" data-name="Group 49" transform="translate(-268.918 -2571.882)">
    <g id="Group_48" data-name="Group 48">
      <path id="Path_86" data-name="Path 86" d="M339.841,2652.788c-.466-1.888-1.28-5.037-2.221-8.683-1.484-5.746-3.331-12.9-4.951-19.47-1.468-5.959-4.068-10.311-7.948-13.307-3.419-2.64-7.388-3.925-11.226-5.168-1.97-.638-3.865-1.253-5.674-2.028a37,37,0,0,0,4.264-3.588,23.5,23.5,0,0,0,6.115-9.365q.642.057,1.3.058a14.511,14.511,0,0,0,7.87-2.308,1.637,1.637,0,0,0-1.771-2.753,11.241,11.241,0,0,1-6.1,1.788c-.2,0-.4-.006-.6-.016a14.991,14.991,0,0,0,.088-1.611,14.456,14.456,0,0,0-28.911,0c0,4.854,2.386,9.766,6.9,14.207a37.088,37.088,0,0,0,4.264,3.588c-1.808.775-3.7,1.39-5.674,2.028-3.838,1.243-7.806,2.528-11.226,5.168-3.879,3-6.479,7.348-7.948,13.307-1.619,6.573-3.466,13.723-4.95,19.468-.942,3.647-1.755,6.8-2.221,8.685-1.266,5.126,1.71,8.712,5.3,9.6a7.518,7.518,0,0,0,1.814.224,7.164,7.164,0,0,0,2.448-.432c-1.482,6-2.659,10.775-3.009,12.185-1.2,4.817-.374,6.683.477,7.77,1.015,1.3,2.69,1.957,4.976,1.957l6.219,0v32.865c0,5.976,4.708,9.1,9.36,9.1a9.485,9.485,0,0,0,7.724-3.735,9.483,9.483,0,0,0,7.724,3.735c4.651,0,9.36-3.127,9.36-9.1v-32.865l6.219,0c2.286,0,3.96-.659,4.976-1.957.85-1.087,1.673-2.953.477-7.77-.351-1.415-1.529-6.185-3.01-12.188a7.29,7.29,0,0,0,2.471.43,7.429,7.429,0,0,0,1.791-.219C338.13,2661.5,341.107,2657.914,339.841,2652.788Zm-24.131-66.451c0,.323-.014.642-.04.957a11.3,11.3,0,0,1-7.457-10.615c0-.3.016-.591.039-.884A11.2,11.2,0,0,1,315.71,2586.337Zm-22.365,0a11.2,11.2,0,0,1,11.183-11.182c.165,0,.328,0,.491.012a14.554,14.554,0,0,0,9.958,15.35c-2.119,6.064-8.242,10.469-10.449,11.9C301.839,2600.674,293.345,2594.522,293.345,2586.337Zm40.4,72.878c-1.966.488-4.293-.4-5.062-3.472-3.265-13.235-7.04-28.55-7.1-28.813l0-.014a1.635,1.635,0,1,0-3.172.795h0l.012.047c.005.023.01.046.016.069l5.379,21.817c2.529,10.258,5.675,23.011,6.3,25.513.641,2.578.681,4.249.122,4.964a3.03,3.03,0,0,1-2.4.7c-1.773,0-7.854,0-7.854,0h0a1.637,1.637,0,0,0-1.637,1.636v34.5c0,4.027-3.057,5.83-6.087,5.83s-6.088-1.8-6.088-5.83v-34.223a1.637,1.637,0,0,0-3.273,0v34.223c0,4.027-3.057,5.83-6.087,5.83s-6.088-1.8-6.088-5.83v-34.5a1.635,1.635,0,0,0-1.636-1.636h0s-6.082,0-7.854,0a3.028,3.028,0,0,1-2.4-.7c-.56-.715-.519-2.386.121-4.964.621-2.5,3.767-15.255,6.3-25.513l5.378-21.817c.006-.023.011-.046.016-.069l.013-.047h0a1.635,1.635,0,1,0-3.172-.795l0,.014c-.065.263-3.84,15.578-7.1,28.813-.769,3.076-3.1,3.961-5.062,3.472-2.021-.5-3.706-2.441-2.916-5.643.462-1.87,1.274-5.013,2.213-8.651,1.486-5.752,3.335-12.912,4.959-19.5,1.3-5.284,3.454-8.938,6.771-11.5,2.968-2.292,6.5-3.435,10.234-4.645a52.047,52.047,0,0,0,7.938-3.068l.021.011.02-.011a52.019,52.019,0,0,0,7.939,3.068c3.736,1.21,7.265,2.353,10.234,4.645,3.317,2.561,5.468,6.215,6.77,11.5,1.625,6.592,3.474,13.752,4.96,19.505.939,3.638,1.751,6.779,2.212,8.649C337.454,2656.774,335.769,2658.714,333.748,2659.215Z" fill="#404040"/>
    </g>
  </g>
</svg>
