<svg xmlns="http://www.w3.org/2000/svg" width="54.852" height="153.772" viewBox="0 0 54.852 153.772">
  <g id="Group_50" data-name="Group 50" transform="translate(-830.273 -2572.288)">
    <path id="Path_87" data-name="Path 87" d="M885.125,2627.619v35.365a5.809,5.809,0,0,1-2.31,4.732,7.646,7.646,0,0,1-4.629,1.464,7.974,7.974,0,0,1-3.44-.754v48.553c0,5.959-4.7,9.081-9.339,9.081a9.481,9.481,0,0,1-7.708-3.725,9.481,9.481,0,0,1-7.708,3.725c-4.64,0-9.339-3.122-9.339-9.081v-48.553a7.974,7.974,0,0,1-3.44.754,7.646,7.646,0,0,1-4.629-1.464,5.809,5.809,0,0,1-2.31-4.732v-35.365c0-7.617,2.826-13.134,8.64-16.875a36.475,36.475,0,0,1,9.721-4.193,50.431,50.431,0,0,0,5.8-2.084,37.055,37.055,0,0,1-4.274-3.59c-4.5-4.43-6.879-9.328-6.879-14.173a14.415,14.415,0,1,1,28.83,0c0,4.845-2.379,9.743-6.879,14.173a37.055,37.055,0,0,1-4.274,3.59,50.434,50.434,0,0,0,5.8,2.084,36.476,36.476,0,0,1,9.721,4.193C882.3,2614.485,885.125,2620,885.125,2627.619Z" fill="none" opacity="0.3"/>
    <path id="Path_88" data-name="Path 88" d="M876.484,2610.741a36.6,36.6,0,0,0-9.723-4.192,50.811,50.811,0,0,1-5.8-2.08,36.774,36.774,0,0,0,4.276-3.594c4.5-4.429,6.881-9.329,6.881-14.17a14.418,14.418,0,0,0-28.836,0c0,4.841,2.38,9.741,6.88,14.17a36.85,36.85,0,0,0,4.277,3.594,50.811,50.811,0,0,1-5.8,2.08,36.6,36.6,0,0,0-9.723,4.192c-5.813,3.742-8.638,9.263-8.638,16.878v35.364a5.8,5.8,0,0,0,2.309,4.733,7.653,7.653,0,0,0,4.625,1.465,7.96,7.96,0,0,0,3.442-.756v48.555c0,5.96,4.7,9.079,9.34,9.079a9.465,9.465,0,0,0,7.707-3.726,9.465,9.465,0,0,0,7.707,3.726c4.642,0,9.34-3.119,9.34-9.079v-48.555a7.96,7.96,0,0,0,3.442.756,7.653,7.653,0,0,0,4.625-1.465,5.8,5.8,0,0,0,2.309-4.733v-35.364C885.122,2620,882.3,2614.483,876.484,2610.741Zm-29.938-24.036a11.153,11.153,0,1,1,22.306,0c0,8.164-8.473,14.3-11.153,16.036C855.017,2601,846.546,2594.869,846.546,2586.705Zm35.311,76.278a2.513,2.513,0,0,1-1.019,2.135,4.458,4.458,0,0,1-2.65.8c-1.191,0-3.442-.528-3.442-2.526v-35.817a1.632,1.632,0,1,0-3.264,0v89.406c0,4.017-3.052,5.815-6.076,5.815s-6.075-1.8-6.075-5.815V2665.2a1.632,1.632,0,1,0-3.264,0v51.776c0,4.017-3.051,5.815-6.075,5.815s-6.076-1.8-6.076-5.815v-89.406a1.632,1.632,0,1,0-3.264,0v35.817c0,2-2.252,2.526-3.442,2.526a4.457,4.457,0,0,1-2.65-.8,2.513,2.513,0,0,1-1.019-2.135v-35.364c0-6.506,2.268-11,7.139-14.133a33.5,33.5,0,0,1,8.927-3.821,44.9,44.9,0,0,0,8.075-3.142l.017.01.017-.01a44.894,44.894,0,0,0,8.075,3.142,33.48,33.48,0,0,1,8.926,3.821c4.872,3.136,7.14,7.627,7.14,14.133Z" fill="#404040"/>
  </g>
</svg>
