<svg xmlns="http://www.w3.org/2000/svg" width="147.348" height="65.222" viewBox="0 0 147.348 65.222">
  <g id="Stars" transform="translate(-221.321 -5014.774)">
    <path id="Path_59" data-name="Path 59" d="M340.909,5030.552l5.108,10.349,11.421,1.66-8.264,8.056,1.951,11.375-10.215-5.371-10.215,5.371,1.951-11.375-8.264-8.056,11.421-1.66Z" fill="#fff"/>
    <path id="Path_60" data-name="Path 60" d="M293.19,5030.552,298.3,5040.9l11.421,1.66-8.264,8.056,1.951,11.375-10.215-5.371-10.215,5.371,1.951-11.375-8.264-8.056,11.421-1.66Z" fill="#fff"/>
    <path id="Path_61" data-name="Path 61" d="M245.47,5030.552l5.108,10.349,11.421,1.66-8.264,8.056,1.951,11.375-10.215-5.371-10.215,5.371,1.951-11.375-8.264-8.056,11.421-1.66Z" fill="#fff"/>
    <line id="Line_26" data-name="Line 26" x1="147.348" transform="translate(221.321 5015.774)" fill="none" stroke="#fff" stroke-miterlimit="10" stroke-width="2"/>
    <line id="Line_27" data-name="Line 27" x1="147.348" transform="translate(221.321 5078.996)" fill="none" stroke="#fff" stroke-miterlimit="10" stroke-width="2"/>
  </g>
</svg>
